# xmcd
#
# Track frame offsets:
#	150
#	18724
#	32234
#	47173
#	65656
#	80432
#	96739
#	113256
#	128132
#	147331
#	162760
#	179912
#	197448
#
# Disc length: 2814 seconds
#
# Revision: 2
# Processed by: cddbd v1.5.2PL0 Copyright (c) Steve Scherf et al.
# Submitted via: audiograbber 1.83.01
#
DISCID=ba0afc0d
DTITLE=Katy Perry - One Of The Boys
DYEAR=2008
DGENRE=Pop
TTITLE0=One Of The Boys
TTITLE1=I Kissed A Girl
TTITLE2=Waking Up In Vegas
TTITLE3=Thinking Of You
TTITLE4=Mannequin
TTITLE5=Ur So Gay
TTITLE6=Hot N Cold
TTITLE7=If You Can Afford Me
TTITLE8=Lost
TTITLE9=Self Inflicted
TTITLE10=I'm Still Breathing
TTITLE11=Fingerprints
TTITLE12=I Kissed A Girl (Rock Mix)
EXTD=www.katyperry.com\nwww.myspace.com/katyperry
EXTT0=Written by Katy Perry
EXTT1=Written by Katy Perry, Lukasz Gottwald, Max Martin and Cathy Dennis
EXTT2=Written by Katy Perry, Desmond Child and Andreas Carlsson
EXTT3=Written by Katy Perry
EXTT4=Written by Katy Perry
EXTT5=Written by Katy Perry and Greg Wells
EXTT6=Written by Katy Perry, Lukasz Gottwald and Max martin
EXTT7=Written by Katy Perry, Dave Katz and Sam Hollander
EXTT8=Written by Katy Perry and Ted Bruner
EXTT9=Written by Katy Perry, Scott Cutler and Anne Preven
EXTT10=Written by Katy Perry and Dave Stewart
EXTT11=Written by Katy Perry and Greg Wells
EXTT12=Written by Katy Perry, Lukasz Gottwald, Max Martin and Cathy Dennis
PLAYORDER=
